<?xml version="1.0" standalone="no"?>
<!DOCTYPE svg PUBLIC "-//W3C//DTD SVG 20010904//EN"
 "http://www.w3.org/TR/2001/REC-SVG-20010904/DTD/svg10.dtd">
<svg version="1.0" xmlns="http://www.w3.org/2000/svg"
 width="512.000000pt" height="512.000000pt" viewBox="0 0 512.000000 512.000000"
 preserveAspectRatio="xMidYMid meet">
<metadata>
Created by potrace 1.14, written by Peter Selinger 2001-2017
</metadata>
<g transform="translate(0.000000,512.000000) scale(0.100000,-0.100000)"
fill="#000000" stroke="none">
<path d="M1255 5104 c-41 -21 -81 -61 -98 -98 -8 -17 -22 -89 -32 -161 -9 -71
-19 -144 -22 -162 l-5 -31 -86 -4 c-72 -2 -92 -7 -118 -26 -61 -46 -66 -66
-89 -332 -4 -41 -8 -88 -10 -105 -8 -71 -18 -233 -17 -264 2 -57 59 -117 123
-130 19 -4 34 -11 35 -16 0 -6 4 -41 8 -80 9 -85 14 -134 21 -200 3 -27 8 -66
10 -85 8 -65 14 -124 39 -365 14 -132 44 -406 66 -610 22 -203 52 -471 65
-595 81 -752 103 -949 115 -1050 8 -70 15 -125 25 -225 16 -148 26 -245 30
-275 3 -19 7 -62 10 -95 8 -74 30 -120 79 -159 l38 -31 1096 -3 c1215 -3 1155
-6 1206 61 34 44 43 73 51 153 4 38 8 80 10 94 1 14 6 57 10 95 3 39 8 81 10
95 4 27 13 104 21 185 2 28 7 66 9 85 8 58 14 110 25 215 6 55 13 114 15 130
2 17 6 62 10 100 3 39 8 81 10 95 3 14 7 52 10 85 3 33 8 74 10 90 2 17 6 57
10 90 3 33 8 76 10 95 10 82 16 135 35 315 11 105 22 208 25 230 2 22 9 87 15
145 6 58 13 119 15 135 5 31 45 410 66 610 6 61 13 126 15 145 7 73 15 146 19
170 2 14 6 56 10 93 3 37 8 76 10 85 1 9 6 56 10 103 l7 87 39 6 c52 8 106 57
116 104 4 20 7 39 6 42 -1 3 -4 46 -8 95 -3 50 -8 108 -10 130 -10 92 -15 144
-20 220 -16 212 -49 256 -204 265 -75 4 -84 7 -87 25 -1 11 -10 79 -19 150 -9
72 -23 149 -31 172 -18 51 -70 98 -121 112 -26 7 -449 11 -1298 11 -1121 0
-1263 -2 -1290 -16z"/>
</g>
</svg>
